<svg xmlns="http://www.w3.org/2000/svg" xmlns:xlink="http://www.w3.org/1999/xlink" viewBox="0 0 64 64"><defs><linearGradient id="a" x1="16" x2="16" y1="64.029" y2="-.099" gradientUnits="userSpaceOnUse"><stop offset="0" stop-color="#e93e3a"/><stop offset=".35" stop-color="#ed683c"/><stop offset=".7" stop-color="#f3903f"/><stop offset="1" stop-color="#fdc70c"/></linearGradient><linearGradient id="b" x1="26.5" x2="26.5" y1="64.029" y2="-.099" xlink:href="#a"/><linearGradient id="c" x1="23" x2="23" y1="64.029" y2="-.099" xlink:href="#a"/><linearGradient id="d" x1="28.5" x2="28.5" y1="64.029" y2="-.099" xlink:href="#a"/><linearGradient id="e" x1="32" x2="32" y1="64.029" y2="-.099" xlink:href="#a"/><linearGradient id="f" x1="47" x2="47" y1="64.029" y2="-.099" xlink:href="#a"/><linearGradient id="g" x1="42" x2="42" y1="64.029" y2="-.099" xlink:href="#a"/><linearGradient id="h" x1="52" x2="52" y1="64.029" y2="-.099" xlink:href="#a"/><linearGradient id="i" x1="22.5" x2="22.5" y1="64.029" y2="-.099" xlink:href="#a"/></defs><path fill="url(#a)" d="M17,22V20a3,3,0,0,0,0-6H15a1,1,0,0,1,0-2h2a1,1,0,0,1,1,1h2a3,3,0,0,0-3-3V8H15v2a3,3,0,0,0,0,6h2a1,1,0,0,1,0,2H15a1,1,0,0,1-1-1H12a3,3,0,0,0,3,3v2Z"/><rect width="9" height="2" x="22" y="16" fill="url(#b)"/><rect width="2" height="2" x="22" y="12" fill="url(#c)"/><rect width="5" height="2" x="26" y="12" fill="url(#d)"/><path fill="url(#e)" d="M59,19H45V14h5a1,1,0,0,0,1-1V6a4,4,0,0,0-4-4H10A4,4,0,0,0,6,6V34H3a1,1,0,0,0-1,1v4a1,1,0,0,0,1,1v2a1,1,0,0,0-1,1v4a1,1,0,0,0,1,1H6v6H3a1,1,0,0,0-1,1v3a4,4,0,0,0,4,4H41a4,4,0,0,0,4-4V57H59a3,3,0,0,0,3-3V22A3,3,0,0,0,59,19ZM49,6v6H45V6a2,2,0,0,1,4,0ZM4,36h8v2H4Zm1,4h8v2H5ZM4,44h8v2H4Zm4,4h5a1,1,0,0,0,1-1V44a1,1,0,0,0,1-1V39a1,1,0,0,0-1-1V35a1,1,0,0,0-1-1H8V6a2,2,0,0,1,2-2H43.556A3.959,3.959,0,0,0,43,6V19H35a3,3,0,0,0-3,3V54H8ZM4,58V56H37v2a3.959,3.959,0,0,0,.556,2H6A2,2,0,0,1,4,58Zm39,0a2,2,0,0,1-4,0V57h4Zm17-4a1,1,0,0,1-1,1H39a1,1,0,0,0-1-1H34V22a1,1,0,0,1,1-1H59a1,1,0,0,1,1,1Z"/><path fill="url(#f)" d="M57 23H37a1 1 0 0 0-1 1v6a1 1 0 0 0 1 1H57a1 1 0 0 0 1-1V24A1 1 0 0 0 57 23zm-1 6H38V25H56zM57 33H37a1 1 0 0 0-1 1V52a1 1 0 0 0 1 1H57a1 1 0 0 0 1-1V34A1 1 0 0 0 57 33zm-1 8H48V35h8zM46 35v6H38V35zm-8 8h8v8H38zm10 8V43h8v8z"/><polygon fill="url(#g)" points="41 40 43 40 43 39 44 39 44 37 43 37 43 36 41 36 41 37 40 37 40 39 41 39 41 40"/><polygon fill="url(#g)" points="44.707 45.707 43.293 44.293 42 45.586 40.707 44.293 39.293 45.707 40.586 47 39.293 48.293 40.707 49.707 42 48.414 43.293 49.707 44.707 48.293 43.414 47 44.707 45.707"/><rect width="4" height="2" x="50" y="37" fill="url(#h)"/><rect width="4" height="2" x="50" y="44" fill="url(#h)"/><rect width="4" height="2" x="50" y="48" fill="url(#h)"/><path fill="url(#i)" d="M28,30H18a1,1,0,0,0-1,1v3a1,1,0,0,0-1,1v4a1,1,0,0,0,1,1v2a1,1,0,0,0-1,1v4a1,1,0,0,0,1,1H27a1,1,0,0,0,1-1V44a1,1,0,0,0,1-1V39a1,1,0,0,0-1-1V36a1,1,0,0,0,1-1V31A1,1,0,0,0,28,30Zm-9,2h8v2H19Zm0,8h8v2H19Zm7,6H18V44h8Zm0-8H18V36h8Z"/></svg>